<svg width="183" height="260" viewBox="0 0 183 260" fill="none" xmlns="http://www.w3.org/2000/svg">
<path d="M69.6466 260C53.7748 260 40.6272 257.277 30.2039 251.831C20.0175 246.384 12.4369 239.399 7.46214 230.874C2.48738 222.35 0 213.588 0 204.59C0 195.829 2.13204 187.541 6.39612 179.727C10.6602 171.676 16.701 165.046 24.5184 159.836C32.5728 154.627 42.0485 152.022 52.9456 152.022C52.7087 154.153 52.5903 156.166 52.5903 158.06C52.5903 159.718 52.5903 160.546 52.5903 160.546C52.5903 176.412 54.1301 188.962 57.2097 198.197C60.2893 207.195 64.1981 213.707 68.9359 217.732C73.6738 221.521 78.5301 223.415 83.5049 223.415C91.0854 223.415 97.8369 220.455 103.759 214.536C109.682 208.379 112.643 201.275 112.643 193.224C112.643 184.226 108.734 176.293 100.917 169.426C93.3359 162.559 83.6233 154.982 71.7786 146.694C65.1456 141.721 58.0388 136.157 50.4583 130C43.1146 123.607 36.8369 116.148 31.6252 107.623C26.4136 98.8616 23.8078 88.561 23.8078 76.7213C23.8078 64.408 26.6505 53.5155 32.3359 44.0437C38.2583 34.5719 45.9573 26.6393 55.433 20.2459C65.1456 13.6157 75.6874 8.64298 87.0583 5.32786C98.666 1.77595 110.155 0 121.526 0C135.503 0 146.992 2.24954 155.994 6.74863C164.996 11.2477 171.748 17.0492 176.249 24.153C180.75 31.2568 183 38.5974 183 46.1749C183 53.2787 180.986 60.1457 176.959 66.7759C173.169 73.1694 167.484 78.3789 159.903 82.4044C152.322 86.4299 142.965 88.4426 131.831 88.4426C132.542 85.1275 133.016 82.1676 133.252 79.5628C133.489 76.7213 133.608 74.235 133.608 72.1038C133.608 60.2641 131.002 51.8579 125.79 46.8852C120.816 41.6758 115.249 39.071 109.089 39.071C103.167 39.071 97.4816 41.3206 92.033 45.8197C86.5845 50.082 83.8602 57.0674 83.8602 66.7759C83.8602 75.0637 85.9922 82.1676 90.2563 88.0874C94.7573 94.0073 100.443 99.2168 107.313 103.716C114.419 108.215 121.882 112.596 129.699 116.858C137.753 121.12 145.452 125.856 152.796 131.066C160.377 136.038 166.654 141.958 171.629 148.825C176.604 155.692 179.091 164.335 179.091 174.754C179.091 185.647 176.13 196.302 170.208 206.721C164.285 216.903 156.231 226.02 146.045 234.071C135.858 241.885 124.132 248.16 110.866 252.896C97.8369 257.632 84.0971 260 69.6466 260Z" fill="#6E64C5"/>
</svg>
